<?xml version="1.0" encoding="UTF-8"?>
<!DOCTYPE svg PUBLIC "-//W3C//DTD SVG 1.1//EN" "http://www.w3.org/Graphics/SVG/1.1/DTD/svg11.dtd">
<!-- Creator: CorelDRAW -->
<svg xmlns="http://www.w3.org/2000/svg" xml:space="preserve" width="7.11111in" height="7.11111in" version="1.1" style="shape-rendering:geometricPrecision; text-rendering:geometricPrecision; image-rendering:optimizeQuality; fill-rule:evenodd; clip-rule:evenodd"
viewBox="0 0 7111 7111"
 xmlns:xlink="http://www.w3.org/1999/xlink">
 <defs>
  <style type="text/css">
   <![CDATA[
    .str0 {stroke:black;stroke-width:250;stroke-linecap:round;stroke-linejoin:round}
    .str1 {stroke:#F6CC00;stroke-width:250;stroke-linecap:round;stroke-linejoin:round}
    .fil0 {fill:none}
   ]]>
  </style>
 </defs>
 <g id="Layer_x0020_1">
  <metadata id="CorelCorpID_0Corel-Layer"/>
  <path class="fil0 str0" d="M389 6986l5206 0 0 -3313c-623,0 -1127,-504 -1127,-1127 0,-623 504,-1127 1127,-1127l0 -1294 -5206 0 0 6861z"/>
  <line class="fil0 str0" x1="2036" y1="707" x2="3899" y2= "707" />
  <g id="_295165384">
   <line class="fil0 str0" x1="1100" y1="6404" x2="4884" y2= "6404" />
   <rect class="fil0 str0" x="1423" y="5603" width="661" height="801"/>
   <rect class="fil0 str0" x="2661" y="4894" width="661" height="1510"/>
   <rect class="fil0 str0" x="3899" y="4385" width="661" height="2019"/>
  </g>
  <g id="_295161880">
   <circle class="fil0 str0" cx="5595" cy="2546" r="1127"/>
   <polyline class="fil0 str1" points="5874,1988 5316,1988 5316,2546 5874,2546 "/>
   <line class="fil0 str1" x1="5595" y1="1814" x2="5595" y2= "1988" />
   <polyline class="fil0 str1" points="5316,3104 5874,3104 5874,2546 "/>
   <line class="fil0 str1" x1="5595" y1="3278" x2="5595" y2= "3104" />
  </g>
  <line class="fil0 str0" x1="1100" y1="1403" x2="4467" y2= "1403" />
  <line class="fil0 str0" x1="1100" y1="1974" x2="2599" y2= "1974" />
  <line class="fil0 str0" x1="1100" y1="2546" x2="3911" y2= "2546" />
  <line class="fil0 str0" x1="1100" y1="3118" x2="3410" y2= "3118" />
  <line class="fil0 str0" x1="1467" y1="4900" x2="4059" y2= "3404" />
  <polyline class="fil0 str0" points="1566,4484 1467,4900 1877,5023 "/>
 </g>
</svg>
