<?xml version="1.0" encoding="UTF-8" standalone="no"?> <svg width="64" height="64" viewBox="0 0 64 64" fill="none" xmlns="http://www.w3.org/2000/svg">
<path d="M10 52C9.40666 52 8.82664 52.1759 8.33329 52.5056C7.83994 52.8352 7.45543 53.3038 7.22836 53.852C7.0013 54.4001 6.94189 55.0033 7.05765 55.5853C7.1734 56.1672 7.45912 56.7018 7.87868 57.1213C8.29824 57.5409 8.83279 57.8266 9.41473 57.9424C9.99667 58.0581 10.5999 57.9987 11.1481 57.7716C11.6962 57.5446 12.1648 57.1601 12.4944 56.6667C12.8241 56.1734 13 55.5933 13 55C13 54.2044 12.6839 53.4413 12.1213 52.8787C11.5587 52.3161 10.7957 52 10 52ZM10 56C9.80222 56 9.60888 55.9414 9.44443 55.8315C9.27998 55.7216 9.15181 55.5654 9.07612 55.3827C9.00043 55.2 8.98063 54.9989 9.01922 54.8049C9.0578 54.6109 9.15304 54.4327 9.29289 54.2929C9.43275 54.153 9.61093 54.0578 9.80491 54.0192C9.99889 53.9806 10.2 54.0004 10.3827 54.0761C10.5654 54.1518 10.7216 54.28 10.8315 54.4444C10.9414 54.6089 11 54.8022 11 55C11 55.2652 10.8946 55.5196 10.7071 55.7071C10.5196 55.8946 10.2652 56 10 56Z" fill="black"/>
<path d="M61.371 27.071L56.771 25.23L54.93 20.63C54.856 20.4441 54.7278 20.2847 54.5622 20.1724C54.3966 20.0601 54.2011 20.0001 54.001 20.0001C53.8009 20.0001 53.6054 20.0601 53.4398 20.1724C53.2742 20.2847 53.1461 20.4441 53.072 20.63L51.231 25.23L46.631 27.071C46.4451 27.1451 46.2857 27.2732 46.1734 27.4388C46.0611 27.6044 46.0011 27.7999 46.0011 28C46.0011 28.2001 46.0611 28.3956 46.1734 28.5612C46.2857 28.7268 46.4451 28.855 46.631 28.929L51.273 30.786L53.1 34.512C53.1825 34.6795 53.3103 34.8205 53.4688 34.9191C53.6274 35.0177 53.8103 35.07 53.997 35.07C54.1837 35.07 54.3667 35.0177 54.5252 34.9191C54.6837 34.8205 54.8115 34.6795 54.894 34.512L56.726 30.786L61.368 28.929C61.5539 28.855 61.7133 28.7268 61.8256 28.5612C61.9379 28.3956 61.9979 28.2001 61.9979 28C61.9979 27.7999 61.9379 27.6044 61.8256 27.4388C61.7133 27.2732 61.5539 27.1451 61.368 27.071H61.371ZM55.629 29.071C55.3994 29.163 55.2119 29.3369 55.103 29.559L54 31.8L52.9 29.556C52.7911 29.3339 52.6037 29.16 52.374 29.068L49.692 28L52.371 26.929C52.4969 26.8788 52.6113 26.8036 52.7072 26.7078C52.8032 26.6121 52.8786 26.4978 52.929 26.372L54 23.692L55.071 26.372C55.1214 26.4978 55.1969 26.6121 55.2928 26.7078C55.3887 26.8036 55.5031 26.8788 55.629 26.929L58.308 28L55.629 29.071Z" fill="#F6CC00"/>
<path d="M14.629 23.929L19.271 25.786L21.1 29.512C21.1826 29.6795 21.3103 29.8205 21.4688 29.9191C21.6274 30.0177 21.8103 30.07 21.997 30.07C22.1837 30.07 22.3667 30.0177 22.5252 29.9191C22.6837 29.8205 22.8115 29.6795 22.894 29.512L24.726 25.786L29.368 23.929C29.5539 23.855 29.7133 23.7268 29.8256 23.5612C29.9379 23.3956 29.9979 23.2001 29.9979 23C29.9979 22.7999 29.9379 22.6044 29.8256 22.4388C29.7133 22.2732 29.5539 22.1451 29.368 22.071L24.768 20.23L22.927 15.63C22.853 15.4441 22.7249 15.2847 22.5592 15.1724C22.3936 15.0601 22.1981 15.0001 21.998 15.0001C21.7979 15.0001 21.6024 15.0601 21.4368 15.1724C21.2712 15.2847 21.1431 15.4441 21.069 15.63L19.228 20.23L14.628 22.071C14.4421 22.1451 14.2827 22.2732 14.1704 22.4388C14.0581 22.6044 13.9981 22.7999 13.9981 23C13.9981 23.2001 14.0581 23.3956 14.1704 23.5612C14.2827 23.7268 14.4421 23.855 14.628 23.929H14.629ZM20.371 21.929C20.4969 21.8788 20.6113 21.8036 20.7072 21.7078C20.8032 21.6121 20.8786 21.4978 20.929 21.372L22 18.692L23.071 21.372C23.1214 21.4978 23.1969 21.6121 23.2928 21.7078C23.3887 21.8036 23.5031 21.8788 23.629 21.929L26.308 23L23.629 24.071C23.3994 24.163 23.212 24.3369 23.103 24.559L22 26.8L20.9 24.556C20.7911 24.3339 20.6037 24.16 20.374 24.068L17.692 23L20.371 21.929Z" fill="#F6CC00"/>
<path d="M59.37 9.07L54.77 7.23L52.93 2.63C52.8563 2.44348 52.7282 2.28344 52.5623 2.17065C52.3965 2.05787 52.2006 1.99756 52 1.99756C51.7994 1.99756 51.6035 2.05787 51.4377 2.17065C51.2718 2.28344 51.1437 2.44348 51.07 2.63L49.23 7.23L48.11 7.68C47.0123 5.10112 44.9692 3.04014 42.4 1.92C42.2469 1.85613 42.0806 1.83006 41.9152 1.84398C41.7499 1.85791 41.5903 1.91142 41.45 2C41.3118 2.09237 41.1985 2.2173 41.1201 2.36379C41.0416 2.51027 41.0004 2.67382 41 2.84V12.5L38 14.75L35 12.5V2.84C34.9996 2.67382 34.9584 2.51027 34.8799 2.36379C34.8015 2.2173 34.6882 2.09237 34.55 2C34.4098 1.91118 34.2502 1.85753 34.0848 1.8436C33.9194 1.82967 33.7531 1.85588 33.6 1.92C31.8813 2.6707 30.3831 3.84837 29.2477 5.34112C28.1123 6.83387 27.3775 8.59212 27.113 10.4488C26.8484 12.3056 27.063 14.1991 27.7363 15.9495C28.4097 17.7 29.5194 19.2492 30.96 20.45C31.2891 20.7269 31.5529 21.073 31.7327 21.4637C31.9125 21.8544 32.0038 22.28 32 22.71V27H29.66C29.0029 26.9985 28.352 27.1267 27.7445 27.3772C27.137 27.6278 26.585 27.9957 26.12 28.46L21.46 33.12C21.1832 33.4006 20.853 33.6231 20.4889 33.7742C20.1248 33.9253 19.7342 34.0021 19.34 34H18V32C18 31.7348 17.8946 31.4804 17.7071 31.2929C17.5196 31.1054 17.2652 31 17 31H3C2.73478 31 2.48043 31.1054 2.29289 31.2929C2.10536 31.4804 2 31.7348 2 32V61C2 61.2652 2.10536 61.5196 2.29289 61.7071C2.48043 61.8946 2.73478 62 3 62H17C17.2652 62 17.5196 61.8946 17.7071 61.7071C17.8946 61.5196 18 61.2652 18 61V59H19.67C20.3189 59.0013 20.9501 59.2117 21.47 59.6L23.33 61C24.1958 61.6486 25.2482 61.9994 26.33 62H46C46.7251 61.9999 47.4365 61.8027 48.0582 61.4295C48.6798 61.0562 49.1883 60.5211 49.5293 59.8812C49.8703 59.2413 50.031 58.5207 49.9941 57.7966C49.9572 57.0725 49.7242 56.372 49.32 55.77C49.8881 55.5801 50.4048 55.2618 50.83 54.84C51.2032 54.4676 51.4988 54.0248 51.6996 53.5373C51.9005 53.0498 52.0026 52.5272 52 52C51.9967 51.0593 51.6561 50.1509 51.04 49.44C51.3265 49.2726 51.5918 49.0711 51.83 48.84C52.2607 48.4096 52.5873 47.8863 52.7847 47.3102C52.9821 46.7342 53.045 46.1206 52.9688 45.5164C52.8925 44.9123 52.6791 44.3336 52.3448 43.8246C52.0105 43.3157 51.5642 42.8899 51.04 42.58C51.5369 42.0003 51.8568 41.2902 51.9617 40.534C52.0667 39.7777 51.9523 39.0073 51.6321 38.3142C51.3119 37.6211 50.7993 37.0346 50.1555 36.6244C49.5116 36.2141 48.7635 35.9974 48 36H44V22.71C43.9962 22.28 44.0875 21.8544 44.2673 21.4637C44.4471 21.073 44.7109 20.7269 45.04 20.45C46.1938 19.4908 47.1375 18.3039 47.8119 16.9636C48.4864 15.6232 48.8772 14.1582 48.96 12.66L49.27 12.79L51.1 16.51C51.1819 16.6791 51.3097 16.8217 51.4689 16.9214C51.6281 17.0212 51.8121 17.0741 52 17.0741C52.1879 17.0741 52.3719 17.0212 52.5311 16.9214C52.6903 16.8217 52.8181 16.6791 52.9 16.51L54.73 12.79L59.37 10.93C59.5565 10.8563 59.7166 10.7282 59.8293 10.5623C59.9421 10.3965 60.0024 10.2006 60.0024 10C60.0024 9.79944 59.9421 9.60352 59.8293 9.43767C59.7166 9.27182 59.5565 9.14372 59.37 9.07V9.07ZM16 60H4V33H16V60ZM48 38C48.5304 37.9841 49.0455 38.1795 49.4318 38.5434C49.8181 38.9072 50.0441 39.4096 50.06 39.94C50.0759 40.4704 49.8805 40.9855 49.5166 41.3718C49.1528 41.7581 48.6504 41.9841 48.12 42H40C39.7348 42 39.4804 42.1054 39.2929 42.2929C39.1054 42.4804 39 42.7348 39 43C39 43.2652 39.1054 43.5196 39.2929 43.7071C39.4804 43.8946 39.7348 44 40 44H49C49.5318 44 50.0417 44.2112 50.4177 44.5873C50.7938 44.9633 51.005 45.4732 51.005 46.005C51.005 46.5368 50.7938 47.0467 50.4177 47.4228C50.0417 47.7988 49.5318 48.01 49 48.01H48.99L40 48C39.7348 48 39.4804 48.1054 39.2929 48.2929C39.1054 48.4804 39 48.7348 39 49C39 49.2652 39.1054 49.5196 39.2929 49.7071C39.4804 49.8946 39.7348 50 40 50L48.1 50.01C48.6304 50.0233 49.1339 50.2467 49.4996 50.6311C49.8653 51.0156 50.0633 51.5296 50.05 52.06C50.0367 52.5904 49.8133 53.0939 49.4289 53.4596C49.0444 53.8253 48.5304 54.0233 48 54.01H47.99L40 54C39.7348 54 39.4804 54.1054 39.2929 54.2929C39.1054 54.4804 39 54.7348 39 55C39 55.2652 39.1054 55.5196 39.2929 55.7071C39.4804 55.8946 39.7348 56 40 56L46.09 56.01C46.5952 56.0554 47.0643 56.291 47.4023 56.6692C47.7403 57.0475 47.922 57.54 47.9105 58.0471C47.8991 58.5542 47.6954 59.038 47.3407 59.4006C46.986 59.7632 46.5067 59.9774 46 60H26.33C25.6811 59.9987 25.0499 59.7883 24.53 59.4L22.67 58C21.8042 57.3514 20.7518 57.0006 19.67 57H18V36H19.34C19.9971 36.0015 20.648 35.8733 21.2555 35.6228C21.863 35.3722 22.415 35.0043 22.88 34.54L27.54 29.88C27.8168 29.5994 28.147 29.377 28.5111 29.2258C28.8752 29.0747 29.2658 28.9979 29.66 29H32V35C32.0024 35.7949 32.3192 36.5566 32.8813 37.1187C33.4434 37.6808 34.2051 37.9976 35 38H48ZM43.76 18.91C43.2052 19.3749 42.7597 19.9565 42.4555 20.6134C42.1513 21.2702 41.9958 21.9861 42 22.71V36H39V26C39 25.7348 38.8946 25.4804 38.7071 25.2929C38.5196 25.1054 38.2652 25 38 25C37.7348 25 37.4804 25.1054 37.2929 25.2929C37.1054 25.4804 37 25.7348 37 26V36H35C34.7348 36 34.4804 35.8946 34.2929 35.7071C34.1054 35.5196 34 35.2652 34 35V22.71C34.0042 21.9861 33.8487 21.2702 33.5445 20.6134C33.2403 19.9565 32.7948 19.3749 32.24 18.91C31.1644 18.015 30.3125 16.8813 29.7522 15.5992C29.1918 14.317 28.9385 12.9218 29.0123 11.5245C29.0861 10.1272 29.485 8.76636 30.1773 7.55035C30.8696 6.33435 31.8361 5.29671 33 4.52V13C33.0011 13.1551 33.0377 13.3078 33.107 13.4465C33.1764 13.5852 33.2766 13.7061 33.4 13.8L37.4 16.8C37.5724 16.9314 37.7832 17.0025 38 17.0025C38.2168 17.0025 38.4276 16.9314 38.6 16.8L42.6 13.8C42.7234 13.7061 42.8236 13.5852 42.893 13.4465C42.9623 13.3078 42.9989 13.1551 43 13V4.52C44.4397 5.47878 45.5718 6.83308 46.26 8.42L44.63 9.07C44.4435 9.14372 44.2834 9.27182 44.1707 9.43767C44.0579 9.60352 43.9976 9.79944 43.9976 10C43.9976 10.2006 44.0579 10.3965 44.1707 10.5623C44.2834 10.7282 44.4435 10.8563 44.63 10.93L46.99 11.87C46.99 11.92 47 11.96 47 12C47.0024 13.3194 46.7132 14.6229 46.1531 15.8175C45.593 17.012 44.7758 18.0681 43.76 18.91V18.91ZM53.63 11.07C53.3993 11.1629 53.2107 11.3373 53.1 11.56L52 13.8L50.9 11.56C50.7893 11.3373 50.6007 11.1629 50.37 11.07L47.69 10L47.83 9.95C47.83 9.94 47.83 9.94 47.84 9.94C47.85 9.94 47.85 9.93001 47.86 9.93001L50.37 8.93C50.4976 8.88153 50.6135 8.80656 50.71 8.71003C50.8066 8.6135 50.8815 8.49762 50.93 8.37L52 5.69L53.07 8.37C53.1185 8.49762 53.1934 8.6135 53.29 8.71003C53.3865 8.80656 53.5024 8.88153 53.63 8.93L56.31 10L53.63 11.07Z" fill="black"/>
</svg>
