<?xml version="1.0" encoding="utf-8"?>
<!-- Generator: Adobe Illustrator 25.4.1, SVG Export Plug-In . SVG Version: 6.00 Build 0)  -->
<svg version="1.1" id="One_Color" xmlns="http://www.w3.org/2000/svg" xmlns:xlink="http://www.w3.org/1999/xlink" x="0px" y="0px"
	 viewBox="0 0 512 512" enable-background="new 0 0 512 512" xml:space="preserve">
<g id="XMLID_00000065072603358251955520000008976438341674597780_">
	<g>
		<polygon fill="#F6CC00" points="312.516,447.993 328.516,503.993 144.516,503.993 160.516,447.993 		"/>
		<path fill="#F6CC00" d="M213.636,78.073l-10.48,30.96c0.4-1.12,0.56-2.32,0.56-3.52c0-4.48-2.8-8.8-7.36-10.32
			c-5.68-1.92-11.92,1.2-13.84,6.88l-0.56-0.16l14.96-42.4c13.2-39.12,55.04-60.64,92.96-47.84l13.76,4.72
			c37.84,12.8,58.08,55.28,44.8,94.4c-4.24,12.56-5.6,25.44-5.04,38.48l-8.8,0.56c0-4.48-2.8-8.8-7.36-10.32
			c-5.68-1.92-11.84,1.12-13.84,6.72l10.48-30.88c-50.56-9.44-64.16-60.08-64.16-60.08
			C245.876,73.593,213.636,78.073,213.636,78.073z"/>
		<path fill="#F6CC00" d="M196.996,127.273c-1.84,5.84-2.72,11.68-2.72,17.52c0,16.56,7.2,32.4,19.44,43.44
			c-2.4,6.16-6.72,14.08-14.64,22.64c-3.76,4.08-8.32,8.4-13.92,12.64c-3.12-2.56-6.64-4.72-10.48-6.4l-11.92-5.28
			c-5.76-2.56-12-3.84-18.24-3.84l37.44-106.08l0.56,0.16l-7.04,20.64c-1.92,5.68,1.2,11.92,6.88,13.84
			c5.68,1.92,11.92-1.12,13.84-6.8L196.996,127.273z"/>
		<path fill="#F6CC00" d="M327.076,173.993l6.96-20.64c0.4-1.12,0.56-2.32,0.56-3.52l8.8-0.56c1.12,25.68,9.52,52.16,17.6,78.24
			l-0.08,0.08c-6.4-6.64-15.84-9.52-24.96-7.44l-1.76,0.4c-8.48,2.16-15.36,8.48-18.16,16.88l-0.96,2.96l-51.44-7.36
			c-4.8-0.64-8.56-4.48-9.12-9.04c-0.08-0.88-0.08-1.68,0-2.56c0.72-6,3.04-13.12,5.36-18.88c26.16-7.04,40.56-19.68,47.36-38.24
			l-0.88,2.72c-1.92,5.68,1.2,11.92,6.88,13.84S325.156,179.673,327.076,173.993z"/>
	</g>
</g>
<path fill="#212121" d="M250.063,120.431c4.266-1.141,6.797-5.531,5.656-9.797s-5.516-6.797-9.797-5.656
	c-7.062,1.867-11.758-3.531-12.305-4.219c-2.711-3.438-7.695-4.078-11.172-1.383c-3.5,2.695-4.148,7.719-1.453,11.219
	c3.438,4.469,11.383,10.797,21.93,10.797C245.188,121.392,247.57,121.095,250.063,120.431z"/>
<path fill="#212121" d="M258.258,162.485c-11.773,1.328-20.883-6.945-21.117-7.164c-3.18-3.039-8.219-2.938-11.281,0.234
	c-3.07,3.18-2.977,8.242,0.203,11.312c0.539,0.516,12.406,11.766,29.539,11.766c1.461,0,2.953-0.078,4.484-0.258
	c4.391-0.508,7.539-4.477,7.031-8.859C266.61,165.126,262.711,161.938,258.258,162.485z"/>
<path fill="#212121" d="M269.211,126.915c3.445,4.469,11.391,10.797,21.938,10.797c2.266,0,4.648-0.297,7.141-0.961
	c4.266-1.141,6.797-5.531,5.656-9.797s-5.516-6.797-9.797-5.656c-7.07,1.875-11.75-3.523-12.32-4.219
	c-2.695-3.438-7.688-4.055-11.164-1.383C267.164,118.399,266.516,123.423,269.211,126.915z"/>
<path fill="#212121" d="M371.86,228.446l-2.445-3.227c-0.363-0.481-0.793-0.887-1.178-1.345L368,223.118
	c-11.555-37.234-23.5-75.734-11.984-109.758c7.242-21.336,5.781-44.133-4.125-64.188c-9.516-19.273-25.742-33.609-45.664-40.352
	L292.43,4.095c-42.172-14.227-88.445,9.469-103.062,52.758l-50.659,143.548c-5.43,0.571-10.75,1.936-15.653,4.116
	c-9.77,4.292-15.534,13.459-15.255,23.182c-1.968,0.831-3.913,1.749-5.784,2.865c-0.109,0.062-0.711,0.453-0.82,0.531
	c-13.406,8.938-20.062,25.508-16.57,41.242c2.789,12.516,8.797,24.18,17.375,33.719l41.703,46.328
	c5.385,21.399,8.735,57.415,8.8,94.523l-15.683,54.891c-0.688,2.414-0.203,5.008,1.305,7.016c1.516,2,3.883,3.18,6.391,3.18h184
	c2.508,0,4.875-1.18,6.391-3.18c1.508-2.008,1.992-4.602,1.305-7.016l-15.688-54.906c0.037-22.907,1.225-46.761,3.118-63.587
	c3.695,0.425,7.425,0.688,11.194,0.688c7.898,0,15.719-2.492,22.016-7.023c6.492-4.648,10.992-11.305,12.672-18.758
	c0.372-1.671,0.594-3.341,0.683-5.001l0.013,0.001l6.297-80.898c0-5.86-1.498-11.55-4.167-16.619
	c1.639-2.372,2.936-4.991,3.613-7.874C377.539,241.056,376.047,233.993,371.86,228.446z M360.539,271.688l-4.258,54.484
	c-0.857-0.603-1.673-1.237-2.602-1.781l-31.682-16.19l27.823-37.919l9.53-4.763C360.116,267.567,360.527,269.685,360.539,271.688z
	 M264.86,359.017c-6,8.188-17.07,10.438-25.742,5.234l-36.859-22.148l25.359-28.562c1.484,1.18,2.883,2.305,4.195,3.359l5.836,4.664
	c6.711,5.273,16.344,4.414,21.883-1.938l58.961-66.32c0.719-0.805,1.273-1.75,1.609-2.781l3.531-10.562
	c1.922-5.789,6.609-10.148,12.367-11.609l1.727-0.398c7.094-1.648,14.539,1.094,18.922,6.914l2.445,3.227
	c1.797,2.383,1.578,4.828,1.289,6.078c-0.297,1.242-1.18,3.531-3.852,4.867l-15.594,7.797c-1.133,0.57-2.117,1.398-2.875,2.422
	L264.86,359.017z M176.135,142.435c1.132,0.677,2.339,1.259,3.638,1.699c2,0.68,4.039,1,6.039,1c0.173,0,0.341-0.035,0.513-0.04
	c0.059,16.771,6.483,32.867,17.76,44.986c-3.356,6.583-9.159,14.822-19.261,23.405c-2.203-1.352-4.484-2.616-6.918-3.687
	l-11.898-5.273c-3.375-1.498-6.941-2.609-10.6-3.349L176.135,142.435z M323.758,146.938c0.297,0,0.594,0.047,0.891,0.148
	c1.492,0.508,2.336,2.203,1.828,3.695l-6.992,20.664c-0.328,0.977-1.062,1.461-1.469,1.656c-0.422,0.211-1.25,0.492-2.219,0.164
	c-0.977-0.328-1.469-1.062-1.664-1.477c-0.203-0.406-0.492-1.234-0.164-2.211l1.146-3.384c0.007-0.021,0.019-0.04,0.026-0.061
	l5.823-17.214C321.37,147.719,322.541,146.938,323.758,146.938z M305.823,143.751c-0.005,0.014-0.013,0.025-0.018,0.039
	l-5.862,17.325c-8.91,26.142-37.408,40.187-63.583,31.347c-26.201-8.864-40.3-37.391-31.454-63.594l5.837-17.25
	c0.002-0.008,0.003-0.016,0.005-0.023l8.971-26.516c8.062-1.68,24.281-6.039,36.875-15.594
	c7.125,15.625,23.633,41.836,56.898,51.594L305.823,143.751z M213.177,205.955c1.284-1.881,2.446-3.709,3.449-5.463
	c4.481,2.89,9.333,5.342,14.608,7.126c5.745,1.94,11.566,3.003,17.344,3.339c-0.296,1.06-0.589,2.121-0.843,3.201L213.177,205.955z
	 M195.587,106.481l-5.05,14.929l-1.943,5.739c-0.5,1.492-2.18,2.344-3.695,1.828c-1.492-0.508-2.328-2.195-1.82-3.688l6.992-20.664
	c0.328-0.977,1.062-1.461,1.477-1.664c0.398-0.203,1.219-0.484,2.211-0.156c0.984,0.336,1.469,1.062,1.672,1.469
	C195.624,104.687,195.908,105.51,195.587,106.481z M201.738,219.678l46.627,11.067c2.648,5.308,7.811,9.308,14.135,10.209
	l29.344,4.195c0.383,0.055,0.766,0.078,1.141,0.078c3.922,0,7.344-2.875,7.914-6.867c0.625-4.375-2.414-8.43-6.789-9.055
	l-29.352-4.195c-1.383-0.195-2.461-1.445-2.297-2.727c0.415-3.493,1.595-7.96,3.33-12.827c15.394-3.208,29.394-11.706,39.125-24.354
	c1.708,1.374,3.623,2.498,5.756,3.22c1.977,0.672,4.016,1,6.047,1c2.867,0,5.727-0.664,8.383-1.977
	c4.539-2.242,7.922-6.102,9.539-10.875l2.722-8.044c2.281,14.529,6.2,29.102,10.525,43.558c-4.478-0.801-9.137-0.785-13.739,0.267
	l-1.922,0.453c-11.234,2.852-20.117,11.117-23.773,22.094l-3.008,9.008l-33.332,37.484l-63.02-39.132
	c-1.289-0.812-2.281-1.992-2.773-3.25c-2.103-5.574-5.228-10.636-9.124-15.108C198.782,222.488,200.334,221.077,201.738,219.678z
	 M287.281,19.243l13.789,4.727c15.898,5.383,28.852,16.844,36.477,32.289c8.008,16.219,9.188,34.672,3.312,51.969
	c-3.014,8.906-4.62,17.924-5.238,27.005c-1.704-1.393-3.637-2.555-5.84-3.302c-0.944-0.32-1.897-0.491-2.85-0.656l4.521-13.367
	c0.742-2.195,0.5-4.609-0.68-6.609c-1.172-2-3.156-3.391-5.43-3.82c-39.68-7.391-54.062-42.797-57.188-52.102l6.164-18.219
	c1.414-4.18-0.828-8.727-5.016-10.141c-4.172-1.422-8.727,0.828-10.141,5.016l-6.547,19.352
	c-12.125,14.648-39.789,18.711-40.078,18.75c-2.992,0.422-5.5,2.492-6.469,5.359l-4.519,13.356c-0.859-0.447-1.727-0.885-2.661-1.2
	c-1.041-0.352-2.101-0.57-3.164-0.737l8.766-24.841C216.32,27.04,253.5,7.829,287.281,19.243z M129.524,219.149
	c9.281-4.125,20.688-4.125,30,0l11.922,5.281c9.492,4.18,16.562,11.359,19.938,20.305c1.75,4.516,5.016,8.445,9.234,11.094
	l60.707,37.695l-13.762,15.477l-5.734-4.586c-2.969-2.375-6.391-5.125-10.156-8.109l-3.117-2.508
	c-22.336-18.008-52.93-42.664-73.117-59.344c-8.87-7.283-19.957-10.72-31.019-10.352
	C125.313,222.058,127.02,220.248,129.524,219.149z M100.25,268.868c-2.078-9.328,1.875-19.164,9.969-24.57
	c4.883-2.914,10.352-4.344,15.781-4.344c6.898,0,13.742,2.312,19.266,6.844c19.234,15.898,47.859,38.992,69.852,56.719
	l-46.633,52.484l-54.594-60.648C107.156,287.86,102.438,278.696,100.25,268.868z M304.563,439.993h-77.734c-4.422,0-8,3.578-8,8
	s3.578,8,8,8h79.65l11.428,40H155.125l11.428-40h27.729c4.422,0,8-3.578,8-8s-3.578-8-8-8h-25.812
	c-0.318-25.036-2.12-49.253-4.977-68.889c1.604,0.53,3.27,0.889,4.993,0.889h0.039c4.547-0.008,8.891-1.961,11.914-5.359l11-12.367
	l39.445,23.711c5.734,3.43,12.039,5.078,18.273,5.078c10.945,0,21.648-5.094,28.609-14.57l0.85-1.159l6.205,2.588
	c7.176,4.467,14.944,7.89,23.081,10.254C306.047,396.025,304.809,418.139,304.563,439.993z M353.914,354.712
	c-0.812,3.602-3.078,6.891-6.383,9.258c-3.609,2.594-8.117,4.023-12.695,4.023c-14.93,0-29.859-4.25-42.039-11.961
	c-0.383-0.242-0.781-0.453-1.203-0.625l-3.24-1.352l24.056-32.785l33.583,17.145C352.195,342.056,355.305,348.462,353.914,354.712z"
	/>
</svg>
