<?xml version="1.0" encoding="UTF-8" standalone="no"?> <svg width="64" height="64" viewBox="0 0 64 64" fill="none" xmlns="http://www.w3.org/2000/svg">
<path d="M19 9V45H13C11.9391 45 10.9217 44.5786 10.1716 43.8284C9.42143 43.0783 9 42.0609 9 41V13C9 11.9391 9.42143 10.9217 10.1716 10.1716C10.9217 9.42143 11.9391 9 13 9H19Z" fill="#C6C5CA"/>
<path d="M61 13V41C61 42.0609 60.5786 43.0783 59.8284 43.8284C59.0783 44.5786 58.0609 45 57 45H19V9H57C58.0609 9 59.0783 9.42143 59.8284 10.1716C60.5786 10.9217 61 11.9391 61 13Z" fill="#5AAAE7"/>
<path d="M14 29C15.1046 29 16 28.1046 16 27C16 25.8954 15.1046 25 14 25C12.8954 25 12 25.8954 12 27C12 28.1046 12.8954 29 14 29Z" fill="#E6E7E8"/>
<path d="M47 24H40V17C41.8565 17 43.637 17.7375 44.9497 19.0503C46.2625 20.363 47 22.1435 47 24Z" fill="#FFD422"/>
<path d="M37 27H44C44 28.3845 43.5895 29.7378 42.8203 30.889C42.0511 32.0401 40.9579 32.9373 39.6788 33.4672C38.3997 33.997 36.9922 34.1356 35.6344 33.8655C34.2765 33.5954 33.0292 32.9287 32.0503 31.9497C31.0713 30.9708 30.4046 29.7235 30.1345 28.3656C29.8644 27.0078 30.003 25.6003 30.5328 24.3212C31.0627 23.0421 31.9599 21.9489 33.111 21.1797C34.2622 20.4105 35.6155 20 37 20V27Z" fill="#FF5023"/>
<path d="M19 31.95C18.8928 31.8921 18.7785 31.8484 18.66 31.82C18.4059 31.752 18.1409 31.7349 17.8801 31.7695C17.6194 31.8041 17.368 31.8898 17.1404 32.0217C16.9128 32.1536 16.7135 32.3291 16.5539 32.5382C16.3942 32.7472 16.2774 32.9857 16.21 33.24L15.05 37.54C14.9372 37.9626 14.6876 38.336 14.3403 38.6019C13.993 38.8678 13.5674 39.0113 13.13 39.01H13.11C12.7708 39.009 12.4378 38.92 12.1433 38.7518C11.8488 38.5835 11.603 38.3417 11.43 38.05L9 34V25C7.40871 25 5.88258 25.6321 4.75736 26.7574C3.63215 27.8826 3 29.4087 3 31V42.53C2.99938 42.839 3.07131 43.1439 3.21 43.42L4.79 46.58C4.9287 46.8561 5.00063 47.161 5 47.47V59H15V52.89C15.0012 51.648 15.2886 50.4229 15.84 49.31L17.37 46.27C17.5675 45.864 17.7217 45.4383 17.83 45C17.9419 44.5349 17.9989 44.0583 18 43.58V42.79C18.0012 42.267 18.0684 41.7462 18.2 41.24L19 38.26L20.07 34.27C20.1178 34.1008 20.1413 33.9258 20.14 33.75C20.1389 33.373 20.0314 33.004 19.8297 32.6856C19.628 32.3671 19.3403 32.1121 19 31.95V31.95Z" fill="#FFC477"/>
<path d="M61 15.88V41C61 42.0609 60.5786 43.0783 59.8284 43.8284C59.0783 44.5786 58.0609 45 57 45H25.11C32.17 42.44 49.69 34.53 61 15.88Z" fill="#3D9AE2"/>
<path d="M57 8H13C11.6744 8.00159 10.4036 8.52888 9.46622 9.46622C8.52888 10.4036 8.00159 11.6744 8 13V24.08C6.3354 24.3203 4.81295 25.1518 3.71118 26.4225C2.60941 27.6932 2.00197 29.3182 2 31V42.528C2.00052 42.9937 2.10867 43.453 2.316 43.87L3.9 47.024C3.96671 47.1639 4.00089 47.317 4 47.472V59C4 59.2652 4.10536 59.5196 4.29289 59.7071C4.48043 59.8946 4.73478 60 5 60H15C15.2652 60 15.5196 59.8946 15.7071 59.7071C15.8946 59.5196 16 59.2652 16 59V52.889C16.001 51.8022 16.254 50.7305 16.739 49.758L18.261 46.714C18.3763 46.4819 18.4785 46.2436 18.567 46H57C58.3256 45.9984 59.5964 45.4711 60.5338 44.5338C61.4711 43.5964 61.9984 42.3256 62 41V13C61.9984 11.6744 61.4711 10.4036 60.5338 9.46622C59.5964 8.52888 58.3256 8.00159 57 8V8ZM10 13C10 12.2044 10.3161 11.4413 10.8787 10.8787C11.4413 10.3161 12.2044 10 13 10H18V30.771C17.3638 30.7933 16.7517 31.0202 16.2547 31.4179C15.7577 31.8157 15.4022 32.3631 15.241 32.979L14.088 37.279C14.0378 37.4662 13.9337 37.6346 13.7885 37.763C13.6432 37.8914 13.4634 37.9742 13.2715 38.0011C13.0795 38.028 12.8838 37.9977 12.7089 37.9141C12.5341 37.8305 12.3876 37.6973 12.288 37.531L10 33.723V13ZM17 42.79V43.583C16.9988 44.3594 16.8181 45.125 16.472 45.82L14.95 48.864C14.3269 50.1144 14.0018 51.492 14 52.889V58H6V47.472C5.99948 47.0063 5.89133 46.547 5.684 46.13L4.105 42.976C4.03657 42.8365 4.00067 42.6834 4 42.528V31C4.00127 29.8477 4.39983 28.7312 5.12849 27.8386C5.85715 26.946 6.87133 26.3319 8 26.1V34C8.00006 34.1815 8.04949 34.3595 8.143 34.515L10.572 38.563C10.833 39.0018 11.2028 39.3659 11.6457 39.6201C12.0885 39.8743 12.5894 40.0099 13.1 40.014C13.7626 40.0181 14.408 39.8033 14.9361 39.403C15.4641 39.0026 15.8451 38.4391 16.02 37.8L17.173 33.5C17.2041 33.3701 17.261 33.2477 17.3401 33.1401C17.4193 33.0325 17.5193 32.9419 17.6341 32.8736C17.7489 32.8053 17.8762 32.7606 18.0086 32.7423C18.1409 32.7241 18.2756 32.7325 18.4046 32.7671C18.5336 32.8017 18.6544 32.8618 18.7598 32.9439C18.8652 33.0259 18.9531 33.1283 19.0183 33.2449C19.0835 33.3615 19.1247 33.49 19.1394 33.6228C19.1541 33.7556 19.1421 33.89 19.104 34.018L17.239 40.982C17.0806 41.5716 17.0002 42.1795 17 42.79V42.79ZM60 41C60 41.7956 59.6839 42.5587 59.1213 43.1213C58.5587 43.6839 57.7956 44 57 44H20V38.4L21.036 34.533C21.1892 33.9676 21.1726 33.3697 20.9884 32.8137C20.8042 32.2576 20.4604 31.7681 20 31.406V10H57C57.7956 10 58.5587 10.3161 59.1213 10.8787C59.6839 11.4413 60 12.2044 60 13V41Z" fill="black"/>
<path d="M14 30C14.5933 30 15.1734 29.8241 15.6667 29.4944C16.1601 29.1648 16.5446 28.6962 16.7716 28.1481C16.9987 27.5999 17.0581 26.9967 16.9424 26.4147C16.8266 25.8328 16.5409 25.2982 16.1213 24.8787C15.7018 24.4591 15.1672 24.1734 14.5853 24.0576C14.0033 23.9419 13.4001 24.0013 12.8519 24.2284C12.3038 24.4554 11.8352 24.8399 11.5056 25.3333C11.1759 25.8266 11 26.4067 11 27C11 27.7957 11.3161 28.5587 11.8787 29.1213C12.4413 29.6839 13.2044 30 14 30V30ZM14 26C14.1978 26 14.3911 26.0586 14.5556 26.1685C14.72 26.2784 14.8482 26.4346 14.9239 26.6173C14.9996 26.8 15.0194 27.0011 14.9808 27.1951C14.9422 27.3891 14.847 27.5673 14.7071 27.7071C14.5673 27.847 14.3891 27.9422 14.1951 27.9808C14.0011 28.0194 13.8 27.9996 13.6173 27.9239C13.4346 27.8482 13.2784 27.72 13.1685 27.5556C13.0586 27.3911 13 27.1978 13 27C13 26.7348 13.1054 26.4804 13.2929 26.2929C13.4804 26.1054 13.7348 26 14 26V26Z" fill="black"/>
<path d="M44 26H38V20C38 19.7348 37.8946 19.4804 37.7071 19.2929C37.5196 19.1054 37.2652 19 37 19C35.4178 19 33.871 19.4692 32.5554 20.3482C31.2399 21.2273 30.2145 22.4767 29.609 23.9385C29.0035 25.4003 28.845 27.0089 29.1537 28.5607C29.4624 30.1126 30.2243 31.538 31.3431 32.6569C32.462 33.7757 33.8874 34.5376 35.4393 34.8463C36.9911 35.155 38.5997 34.9965 40.0615 34.391C41.5233 33.7855 42.7727 32.7602 43.6518 31.4446C44.5308 30.129 45 28.5823 45 27C45 26.7348 44.8946 26.4804 44.7071 26.2929C44.5196 26.1054 44.2652 26 44 26ZM37 33C35.4946 33.0014 34.0437 32.4368 32.9352 31.4183C31.8266 30.3998 31.1414 29.0018 31.0155 27.5017C30.8897 26.0016 31.3323 24.509 32.2556 23.32C33.1789 22.131 34.5154 21.3325 36 21.083V27C36 27.2652 36.1054 27.5196 36.2929 27.7071C36.4804 27.8946 36.7348 28 37 28H42.917C42.6788 29.3974 41.9543 30.6656 40.8716 31.5805C39.7888 32.4954 38.4175 32.9982 37 33V33Z" fill="black"/>
<path d="M40 25H47C47.2652 25 47.5196 24.8946 47.7071 24.7071C47.8946 24.5196 48 24.2652 48 24C47.9976 21.879 47.154 19.8456 45.6542 18.3458C44.1544 16.846 42.121 16.0024 40 16C39.7348 16 39.4804 16.1054 39.2929 16.2929C39.1054 16.4804 39 16.7348 39 17V24C39 24.2652 39.1054 24.5196 39.2929 24.7071C39.4804 24.8946 39.7348 25 40 25ZM41 18.083C42.2277 18.2929 43.36 18.8786 44.2407 19.7593C45.1214 20.64 45.7071 21.7723 45.917 23H41V18.083Z" fill="black"/>
<path d="M56 13H52V15H56V13Z" fill="black"/>
<path d="M56 17H52V19H56V17Z" fill="black"/>
<path d="M48.414 15H50V13H48C47.7348 13.0001 47.4805 13.1055 47.293 13.293L45.293 15.293L46.707 16.707L48.414 15Z" fill="black"/>
<path d="M50 34H47V36H50V34Z" fill="black"/>
<path d="M56 34H52V36H56V34Z" fill="black"/>
<path d="M56 38H47V40H56V38Z" fill="black"/>
<path d="M26 13H24V15H26V13Z" fill="black"/>
<path d="M32 13H28V15H32V13Z" fill="black"/>
<path d="M32 17H24V19H32V17Z" fill="black"/>
<path d="M28 34H24V36H28V34Z" fill="black"/>
<path d="M28 38H24V40H28V38Z" fill="black"/>
<path d="M31.586 38H30V40H32C32.2652 39.9999 32.5195 39.8946 32.707 39.707L34.707 37.707L33.293 36.293L31.586 38Z" fill="black"/>
</svg>
